<svg id="Слой_1" data-name="Слой 1" xmlns="http://www.w3.org/2000/svg" viewBox="0 0 177.05 215.05"><defs><style>.cls-1{fill:#dadada;stroke:#f9f9f9;stroke-linecap:round;stroke-linejoin:round;stroke-width:0.25px;}</style></defs><title>1</title><path id="Chukot" class="cls-1" d="M115.9.2l.1.1.3-.1h0V.1l-.1-.1h-.3V.2ZM102.5,29.6l-.1.2-1,.1-.1-.1-.2-.2h-.3l-.1-.1v-.4h0l-.1-.1h.1v-.4l-.3-.1-.1-.1-.1-.2h0l-.6-.2h-.1l-.1.2v.4l.1.3.1.2.1.1.1.1v.1l-.1.1v.4l.1.1.1.1v.2h-.3v.1l.1.2.1.2.1.3.1.3v.7l.1.1.1.1.1.1.4.2H102l1.1.4.6.3h.7l.5-.2h.5l.3.1v.1h.3l.2.1,1.2.4,1-.3,1-.3,1-.3.1-.2,1.1-.5h0v-.4l.8-.9.8-1v-.5l-.1-.3-.1-.2-.1-.1-.1-.1v0h0v-.1l.1-.3V28l-.1-.3v-.3l.1-.2.1-.1-.1-.1h-.3l-.3.1-.1.1v.6l-.1.3-.1.1h-.1v-.1l.1-.2v-.1l-.4.1-.5-.1H111l-.1.2v-.4l-.1-.1-.1-.1-.2-.1-.9.3-.9.3-.9.3-.3.5v.2l-.3.2H107l-.1.2h-.2v-.1l-.3-.2-.2-.2-.1-.2v-.5l-.1-.4h-.1l-.5-.2-.7.3-.7.3h-.5l-.8.4-.1.2.2.1.1.1.1.2h-.3l-.2.1-.1.2h0v.2l.2-.2.1-.1.2.2v.1ZM91.8,48.5v-.2h0l-.1-.1-.3-.4-.3-.2h-.3l-.7.4-.7.4-.2.5v.3l.1.4.2.5.1.3.3.4.7.7.4.2.3-.2v-.1l.1-.3.1-.1.1-.1h0l.1-.2.1-.1.3-.1-.1-.1.1-.2V50l-.1-.2v-.4h0v-.1h0v-.2l-.1-.1v-.5Zm-.7,29.2h0l.3.1.2-.1h.1l.3.3h.5l.1-.1.3-.8v-.2l-.3-.3h0l-.2-.1H92l-.1.1-.1.2-.1.1h-.4l-.7.4-.2.4-.3.2v.2h.2l1.2.4.1-.1-.1-.1h0v-.1l-.1-.1h-.3L91,78l.1-.3ZM99.3,15h0l.4-.2.4-.3.6-.3.4-.2.1-.1v-.1l-.2-.2v-.2l-.1-.2.1-.2.1-.2v-.2l-.1-.2h-.1l-.9.8-.2.2-.1.3-.1.3-.2.3-.1.2-.1.3V15ZM96.7,49.9l-.6.1-.8-.2-1.2.6-.4.7-.5.1h-.3l-.3.8v.7l.1.4v1.7l-.1.9-.6.6-.5.1-.5.1-.2.7.2.4.2.3h.5l.5-.4.2-.5.5-.4.8-.4.9.1.9.1.7.1,1-.1,1.1-.2.4-.1h.6l.6-.3,1.3-.1.6-.4.2-.3v-.6l-.2-.2-.3-.3v-.1h0v-.2h0v-.2l-.1-.1-.1-.1v-.1l.1-.4-.3-.3-.3-.3-.2-.2-1.1-.7H99l-.3-.2h-.2l-1.3-.8ZM112,15.2l.5.2h.2l.1-.1V15l-.1-.2-.1-.1h-.1l-.1-.1v-.3h-.1l-.3.1-.1.3v.4Zm55.6,47.3.2.2.4.2.2.2.1.2.1.3.1.2v.3l.2.3v.1l.1-.1.2.1h0l.1.1h0v.1h0l.6-.1h.3l.2.1.2.1.2.2.1.2.1.4.1.2h0l.1-.2h.1l-.2-.4-.3-.3-.5-.3-.3-.2-.1-.1-.2-.3-.1-.1v-.1l-.1-.1-.2-.1-.1-.1v-.4l-.1-.2-.2-.2v-.3l-.1-.1-.2-.1-.1-.1-.1-.1v-.1l.1-.3v-.1h0l-.1-.2-.1-.1-.2-.3H168v.2h-.1v.2l-.2.6v.4Zm.2-1.9.2.3.1.2v.1l.2.4v.5h0l.1-.1.3-.3.1-.2v-.2l-.1-.1V61l-.1-.1-.1-.1-.1-.1v-.5l-.1-.1-.1-.1-.2-.1-.1-.1h-.2V60l.1.1v.1l-.1.2Zm.6-.6.2.1.2.1.1.1h.1l.1-.1.1-.1v-.2l-.1-.2-.1-.2v-.1l-.1-.1h-.1l-.2.1-.1.2-.1.1-.1.1.1.2Zm-3.3-9.5.2-.3.1-.1-.2-.1H165v.1h0v.1l-.1.1h0v.1h-.1v.1Zm-3.2,0h0l.1.1h.1l.1-.1h.1l.3.1h.2l-.1-.1-.1-.1-.1-.1v-.1l-.1-.1h-.3L162,50h0l-.1.1.1.1Zm-3,1.3h0l.1-.2h.2l.1.3v.2l.1.2.3-.1.2-.2.2-.2-.2-.1-.1-.1-.2-.3-.1-.1-.1-.1-.1-.1-.4.1h-.1l-.2.1v.2ZM46.3,66.6h0v.3h.1l.1.1.1.1h.1V67h.2l.1.1h0l.2-.4v-.3l-.1-.1h-.5v-.1l.2-.2-.5.3v.3ZM74.9,36.8l.2.1.1.1.1.1v.3h.2l.2.3h.1v.1h-.1V38h0v.4l.1.1.2.1.1.1.1.2.1.1-.3.1v.6l.1.2h.1l.1-.2.1-.2.2-.1h.1l.1.1.1.2.1.2v.3l-.3.3-.3.1h-.1l-.4-.4h-.1l-.2.4.1.1.2.2.1.1v.2l.3.5.1.1.5.5.2.2-.1-.1.2.3.1.1,1.1.6.7.1.6.3.1.1v.2l.1.1.1.2.1.2.1.2.1.1.6.3h.2l.2.1h2l.8.4.3-.1.2-.2.2-.4.1-1V42.9h0l-.1.2-.1.1-.1-.1-.1-.2-.1-.2v-.1l-.1-.1v-.2l.2-.5.1-.1.2.1h.1l.2-.2h.1v.1l.1.2.1.1.1.1h.1l.1.1.1.1.1.2.1.1.3.3.7-.4.4-.6.2-.1,1.1-.9.7-.3.6-.8.3-.5.9-.4.2.1.1.2.3.1.1.1.1.1v.1h-.1l-.4-.2h-.6l-.1.2v.2l1.5.7.5-.1.4-.3v-.2h-.1l-.2.1v-.6l.1-.1.1-.1h.1l.2.1h.1l.1-.2.1-.1H94l1.1-.7.4-.5v-.2l-.3-.3-.2-.2h-.2l-.2.2H94l-.8-.1-.5.1h-.6l-.1-.2V37l-.2-.3-.2-.2-.4-.1-.1-.1v-.2L91,36l-.1-.1-.9-.6-.2-.3-.1-.2v-.3l-.1-.5-.4-.4-.1-.1v-.1h0v-.7h-.3l-.1-.1.4-.2v-.1h-.6l-.1-.1.1-.1.9-.3.1-.1v-.2l-.1-.2-.1-.1h-.2l.1-.2.5-.1.2-.2H90l.1.1h0l.4-.3.3.1.4.6.1.3v.2l-.2.6-.3.2-.1.5v.2h0l-.2.2v.2h0l.1.1v.6l.1.2.1.1.2.1h.2l.1.1.1.2.1.2.1.1.1.2h.1l.2-.1h.1l.1.1.2.3.1.1v.2h0l.1.1h.3l.1-.1h.2l.2.1h.5l.4.1h.2l.2-.3.6-.2h.1l.3.2h.5l.3-.4.5-.2.1-.1v-.7l.1-.3.2-.2v-.3l-.1-.3-.1-.3-.1-.2v-.2l.3-.1.1-.2-.2-.1-.6-.1h-.1l-.1-.1v-.4l-.1-.2h0v-.2l.1-.2.4-.5.1-.4.4-.4h.3v-.1l-.1-.1-.1-.1-.4-.3-.4-.1H95.6l-.2-.2-.2-.2-.1-.1H95l-.2.1-.6-.2h-.7l-.9-.4h-.3v.1h0l-.3-.1H91l-.4.5v.2l.2.2h-.3l-.5.3-.4-.1-1.1.1-.3.2-.1-.1-.2-.3-1.2-.7-.8-.3-.8-.4h-.3l-.8-.3h-.2l.1.1.2.2.1.1h0l.2.2h0l.2.2.2.2.3.2.1.2-.1.1h-1l-.5.2-.1.1v.9l.1.2.1.2.1.2v.4l.3.5.2.4.1.4.1.3.4.2.1.1h0v.1l.1.1.2.1.1.1v.2l-.1.2-.2.1h-.4l-.2.2h-.8v-.4l-.1-.2v-.7l-.1-.2-.1-.1-.1-.1H83l-.1-.1h-.1l-.1.4-.6-.2H82l-.2-.2h-.1l-.2-.1-.1-.1V32h0v-.3h.2v-.1l-.2-.3-.2-.2-.1-.1-.5.1-.3-.2-1.5-.5-.5-.4-.1-.1-.1-.2v-.3h0l-.1-.1h-.1l.1-.1.2-.2.1-.2-.5.5-.5.5v.4l.1.4h0l.1.1h0v.8l.1.1v.1h-.1l-.1-.1-.2-.3-.1-.1-.1-.1-.1-.1v-.3l-.9.7v.4h0l-.1.2v0l.1-.2h.1v.6l-.2.3-.5.2-.5.9V34l.1.3.1.2.1.2.3.2.2.2.2.1.4.1.1.2v.1h0v.1h-.1l-.4-.2-.5.2-.3-.1-.3.2h0v.3l-.1.5ZM56.6,67.9l.3.1.2-.1.3.1.8-.1.1-.1h-.2l-1-.2-.5.1-.2.2-.1.2.1.1ZM35.3,78l.1.2-.1.3.1.1h.1l.1-.1,1.2-.3h0l-.1-.1v-.2l.1-.2v-.2l-.1-.2-.8-.3-.6.2-.3.4-.1.1.1.2ZM21.6,68h0l.2.1H22l.1-.1v-.5l-.1-.2-.1-.2-.1-.1h-.1l-.1.1V68Zm155.1.5.1-.2v-.1h0l-.1-.1h0v-.7h0l-.1-.1h0l-.1-.1h0V65.9h0v-.1l-.2-.1h-.2l-.1-.1h0l-.1-.1-.1-.2h.3l.1-.1v-.4h-.3l-.1-.1h-.3l-.6-.1h-.1v-.2h-.1v-.1h0v-.2l.1-.3v-.1l.1-.1v-.3l.1-.1V63h0l-.7-.3-.4-.1h.1l-.1-.1v-.1h-.6v-.3h0l-2.7-2.7-.1-.1-.1-.1h0v-.1h0l-.2-.1h0v-.2l.1-.2v-.1h0v-.1h-.2l-.2-.1h0l.1.2v.2h-.3V59h.1v.2h0v.2h.2v.1l.1.2-.1.3-.1.1h-.2v.4h0v1.1l-.2.5v.2l.1.1.1.1.1.1v.2l-.1.1.1.1.2.1.1.1.1.6.2.1.1.1.1.1.1.1v.1l.2.2v.1l.1.1v-.3l.1.1.2.1.1.1.1.1.1.1.2.3.1.2.1.1v.3l-.1.2v.4l-.1.6v.2l.1.2v.1l.1.1.3.2v.1l-.1.2v.1l.1.9v.5l-.3.3-.3.1h-.2l-.2-.2.6-.2.2-.2v-.5l-.1-.5V68l-.1-.2-.2-.4v-.1h0v-.1h0v-.5l-.1-.2v-.4l-.1-.4v-.2l-.1-.2-.2-.1-.2-.1h-.2l-.8.3-.4-.1-.1-.2v-.5l-.1-.3-.1-.1-.2-.2-.1-.1v-.4l-.1-.1-.1-.1-.1-.1-.1-.1-.1-.1-.1-.2-.1-.1-.1-.1H168l-.1-.1-.1-.1v-.1l-.1-.1-.1-.3-.1-.2-.1-.2v-.1l-.1-.1-.2-.1H167l-.1-.1h.1v.2h-.5l-.7.2-.2.1-.1.2-.1.3-.1-.2-.1-.1-.1-.1h-.2l-.4.1h.1l.2.1h-.1l-.2-.1-1-.1h-.1v.1l-.1.3v-.3H163l.1-.1-.3-.2-.1-.1-.1-.2v-.7l.1-.2v-.2l-.1-.1h-.1v-.1l-.1-.2v-.5h-.1l-.1.1H162l-.2-.1h-.2l.1-.2.5-.1.1-.1v-.5l-.1-.5v-.5l-.1-.2-.1-.2-.1-.2-.1-.2-.3-.3-.3-.3-1.3-1-.9-.5-2-.6h-2.6l-.5.1-.4-.1-.3.1h-.7l-.6.3h-.3l-.1.1h-.2l-.8.5-.9.4-.9.4-1.1.7-1,.4-.7.7v1.3h-.1l-.1-.1-.1-.1v-.4l-.1-.1h-.1l-1.1.9-.7.7-.6.5-.6.5-.1.3-.5.8-.6.7-.2-.1-.4.3v-.1l-.3.2v.1l.1.1V63l-.8.7-.5.3-.5.3v.4l-.1-.3-.2-.1-1,.2-1-.2-.9.2-.1-.1,1.2-.5.1-.1v-.1l-.1-.2-.2-.2-.5-.2-.2-.1-.3-.2-.5-.2-.2-.2v-.1h-.1l-.2-.1H134l-.1-.1h-.3l-.2-.1-1.1.2-.3-.1h-.1l-.4.4-.1.1V63l-.1.2v.2l-.1.1v-.2l-.1-.3-.1-.2v-.2l.1-.3-.2.2-.1.2v.4l-.2.7-.3.2-.1.1-.1.6-.1.2-.1.1h-.2v-.2l.1-.2.1-.6v-.1l.1-.1v-.4l.1-.1.1-.2V63h0v-.6h0v-1l-.1-.2-.2-.2h.1l-.2.2h-.1l-.1.2h-.2v-.1h-.2l-.4.3-.4.7v-.1l.1-.3.1-.1v-.1l-.1-.1-.1-.2v-.3h.1v.3l.1-.1.1-.1v-.1l-.2-.1-.2-.1-.1-.1-.1-.2H128v.2h-1.7v.1l-.1.2-1.3.3h-.2l-.4.2h-.2v.5l-.5.2v-.2l.1-.1.3-.1-.1-.1V61l-.4.1h-.1l-.3-.2v-.1h0l.2.1.2-.1h.5l.1-.1v-.6l.1-.2v-.2h-.1v-.2l.1-.1h.1l.4.3.3.2.4.3h.1l.1-.1.5-1.1v-.2l-.1-.3-.1-.2-.1-.1-.5-.4-1-.6h0l-.1-.1H124l-.3-.1h-.8l-1.4-.1-.9.1-.9.1-.8.2-1.1.4-.2.2-.7.2-.2.3h-.3l-.1.1-.1.2-.1.2-.3,2.5-.1.1v1.2l-.1.3v.4h0l-.1.3v.7l-.1.2-.1.3-.1.1-.2.1-.1.1-.1.4-.2.3-.5.1-.3,1h-.1l-.1-.1h-.5v.2l-.1.1h-.1l-.2-.1h-.1v.3h0v-.1l-.1-.1h-.1v.3l-.1-.2-.1-.3v-.2l-.2-.2.1-.2h.3l.1-.4.1-.1.1-.1-.1-.3-.1-.1-.5-.1-.1-.1-.1-.1-.2-.1-.1-.1-.1-.1v-.4h.1l.2.2.2.1h.3l.4.1.3.2h.1l.5-.6.5-.3v-.4l-.1-.2v-.1l-.1-.2-.1-.2-.1-.2h-.2l-.1.1h-.1l-.1-.1-.1-.1-.1-.1h0v-.2h0v-.7l-.1-.3h0l-.1-.1h0l-.4-.1.1-.2.1-.1.5.1.1.1.1.1v.1l-.1.1v.1l.1.2h.1l.1-.1H113l.1.1.1.1V62l.1.1.1.1h0v-.3l.1-.2v-.1h0l-.1-.1v-.2l.2-.1.1-.1h.1l.1.2h.3l.1.1-.1.2V62l-.1.1-.1.3v.1h0v.2h0v.1l.1.1v.5l.1.1.1.1v.5l.1.3h.1l.2-1.5.4-1,.2-1.1v-.7l.1-.5-.1-.4-.9.5-.9.5-.7.4-.8.5-.8.5-.9.5-.2.3-.5.3-.1.2v.6l-.3.2H109l-.5-.1-.1-.1H108l-.1-.2h-.1l-.3-.2h.4v-.7l.1-.1h.2l.1.1.3.2.1.1V61.1l.2-.6.1-.2.1-.1h.3l.2.1h.1V60h.2v.1h.1l.1-.1h.1l.1.1.2.2.1.1h.2l.2-.2.6-.3,1.1-.3.1-.1,1-.3,1-.3.1-.2v-.1l-.1.1h-1.1l-.3-.1-.4.1-.5-.1-.5.2-.8.1-1.1-.2-.9.2-.9.2-.8.2h-.9l-.7.2-1.1.3-.4-.1h-.3l-1,.6h-.2l-1,.3-.5.1-.8.5-.8.1-.8.1-.3-.1h-.3l-.4-.2-.2-.2-.1-.1-.4-.1-.6.2h-.2l-.3.1H96l-.1.1h-.2l-.3.2v.1l.1.2.1.1.2.1.1.1h0V62h0l.7.2.2.2H97l.2.1.1.2.1.2v.5h.2l.3-.1-.1.1-.3.2V64l-.2.2-.5.6-.6.3-.7.4h-.7l-.8.4-.1.2-.1.7h-.1v.1h0v.5l-.1.4v.3l.1.3v.4l.1.1.2.2.4.6.2.1H95l-.1-.1h-.2l-.1-.1-.1-.2h.4l.4-.2v-.1l-.3.1-.1-.1.1-.4.1-.2.8-.3.8-.3h.2l.2.2v.2l-.1.2-.2.1h-.1l-.4-.1H96v.4l-.1.6v.2l.1.2.1.2.1.2v.3l-.1.2-.1.1h-.5l-.2.2v.1L96,71h.1l.2.1.1.1.1.1.1.1.2-.1.1.1h0v1.2l.1.1.1.3.1.2.1.2v.1l.1.1.3.4.1.1.7.4v.2l.2.1.1.1V75h-.2l-.2.1h-.1l-.1.2-.1.2H98l-.3-.2h-.1l-.4.2v.9l-.1.1-.3.1-.2-.1h-.1v-.2l-.1-.1-.2-.1-.1-.1v-.1l-.1-.1-.2-.3-.1-.1-.2-.1H95l-.5-.3h-.1l-.1.1-.2.5h.2l.1.1V76l-.4.3-.1-.2v-.8l.1-.2-.8.4-.3.3-.1.3.1.3v.1l.1.2v.2l.3.6v.6l-.1.1v.1h.1l.1.1h0v-.3h.1v.2h.1l.2.1h.1l.9-.3h0l.1.1h0v.1l-.1.1h-.7l-.3.4v.1l.7-.2h.1v.4l-.1.1h-.2v.4l-.3.1-.5-.1-.1.1v.1l-.1.1.1.1h.4v.2l.1-.2h0v.1l.2-.1h.1v.1h.1l.1.1.1.1.1.1-.1.1-.1.1-.1.1h-.1v-.1H94v.3h-.2l-.1-.1-.1-.2h-.1l-.4-.1h-.3v-.2l.1-.1h.4l.1-.1v-.2h0V80h-.1v-.3l-.1.4v.1h-.3l-.1-.1-.3-.1-.1-.1v-.1h.1v-.1h-.1l-.1-.1v-.4H92l-.1-.1-.2.2h-.2V79l-.2-.1h-.6l-.1-.1-.1-.1h-.3l-.3-.3-.1-.1h-.4l-.1.1V79h-.1v-.3H89l-.1-.4-.3-.1-.4.1-1.1-.1-1,.5-.2.2-.3.2-.1.1v.2h.3l.1.1-.3.1-.3-.1h-.1v.4h0l-.1-.1H85l-.2.4-.1.1-.1.1-.1.2v.2l.1.3v.1l-.2.1.1.2.1.1.1.1v1.1l-.2-.3v-.2l.1-.2v-.4l-.5-.2H84l-.1.1-.1.3-.9.4H82l-.4-.1h-.5l-.8-.3-1.1-.6-.2-.1-.1-.1V81l-.1-.1-.1-.1h0l-.3-.3-.2-.3h-.3l-.6-.2-.1-.1-.1-.2v-.3l.2-.1-.1-.1-.1-.2-.1-.1v-.3l.2-.2h.2v-.2l.2-.3.2-.1.2.1.3.2.3.2.3.4-.2-.5-.4-.2-.4-.3H76.8l-.2.1-.2.2-.3.1-.2.2-.2.3-.1.5-.2,2.2v1.9l.1.4v1.7l.1.2.1.1h.7l.1.1-.6.1-.2.2-.1.2v.3H76l.1.1v.2H76l-.1.1v.2l.1.2v2.2l-.2.9-.3.7-.2.2-.3.1h-.6l-.1-.1v-.4l-.1-.2-.2-.3-.1-.2-.1-.2-.1-.1-.1-.1v-.4l-.1-.2h-.1l-.1.1v.9l-.1.1h-.4l-.1-.1h0V90l-.1-.1h-.5l-.5-.1h.1v-.2l-.1-.1-.1-.1-.1-.1v-.2h0l-.1-.1-.1-.1h-.1L71,89l-.1.2-.1.1v-.2h0l-.3-.1-.5.4v-.1l.1-.1v-.5l-.1-.1-.1-.1h0v-.1h0v-.1l-.1-.1-.1-.1-.1-.2-.1-.1-.1-.1-.4-.1-.2-.1-.2-.1-.2-.2-.1-.2-.2-.4-.1-.2-.1-.2v-.1l-.1-.1-.2-.1-.1-.1v-.5l-.1-.1-.1-.1-.1-.1-.1-.2-.1-.1h-.1l-.5.4h-.2l-.2-.2-.2-.3v-.2l.1-.2L66,84l.1-.1.4-.1.2-.3.2-.2.1-.2h0l.6.2h.1l.1-.1-.7-.5h-.2l-.1-.1v-.4l-.1-.2-.5-.4-.5-.6-.1-.1h-.1v.2l.2.2.1.2.1.2.1.2.1.2.2.3.1.2v.2l-.1.3-.4.4v.2h0l-.3-.3-.4-.4-.1-.1-.2-.1-.1-.1v-.3l-.1-.1-.1-.1v-.1h0l-.1-.1v-.1h-.3v.5l-.1-.2v-.1h0l-.1-.2v-.4l-.1-.2-.1-.1-.2-.1-.2-.2h-.1l-.1-.2-.2-.2-.2-.2h-.3l-.2-.2-.1-.1-.4-.2h-.4l-.1-.2h.3v-.1l-.1-.1-.3-.4-.1-.1-.1-.1-.2-.2.3-.2h.2l1.2.8,1.3.2.2.1-.1.2V80l.9.3h-1l.2.1.4.4.1.1.3-.1.1-.1v-.1h0l.2.1h.1l.3-.2.3-.4h.1V80h-.1l-.3.1-.1.1h-.1V80h.1v-.3l.2-.5H66V79l-.2-.1h-.3v-.1h-.1v-.3l.3-.1v-.3h0V78h0l-.5-.3-.2-.1h-.2v-.3l-.1-.2h-.5l-.8.4h-.7l-1.2-.4h-.3l-.2.3-.4-.1-.4-.3h.2l1.2-.5.1-.1V76h.1v.1h0l.4-.2h0l.2.1h.2l.2.1,1-.1v-.1h-.1v-.2l.1-.1.2-.1-.2-.1-1.5.1H61l-.6.3.2-.4v-.2l-.2-.2V73.9l.1-.2,1-.7.2-.3.4-.2.5-.1H63l.4.1.2-.2V72l-.1-.2-.2-.3-.4-.2-.5-.2L62,71h0l-.2.1-.1.1-.1.4-.1.1h-.1v-.4l.1-.1h0v-.3h0l-.1-.2.2-.1h.1v-.2l-.1-.1h-.1l-.2.2h-.1v-.4h-.3l-.4-.2h-.2l-.3.4h-.1l-.2-.2h-.1l-.2.1.1-.4-.1-.2v-.2l.1-.3h-.2l-.1.2h0l-.1-.1H59l-.6.3v-.2l.1-.3v-.2l-.1-.1-.5-.1v-.1l.1-.1v-.3l-1.4.2-.1.1-.9-.3h-.4l-.4.2-.1.1h.4v.5h0l.1.2-.3-.1v.7l-.1-.1-.2-.4h-.1l-.1.1v.1h0v.4H54l.4.6.1.1v.1l-.1.2v0l-.3-.5-.1-.1-.1-.1h-.2v-.2l-.1-.1h-.1l-.2.3-.3.1v-.1l.1-.1v-.1l-.1-.2-.1-.1h-.2v-.2h.1l.1.1v-.2H53l.1.1.1.1.1-.2v.1l-.1-.1V69l-.2-.1-.2-.2h-.2l-.1.1-.2.5-.2.1v.2h0V70l-.1.1-.1-.1v-.5l-.1-.4v-.2h-.1v.4l-.1.2.1.1h.2l.1.1-.1.1h-.1l-.1-.1-.1-.1-.3.2-.1.1.1.1v.3H51v-.2l-.2-.1-.1-.2v-.2l.3-.2h0v-.2l-.1-.1-.2-.1-.2.1h-.1V69l-.1-.1h-.1v.2h0v.1l-.1.3H50l-.1-.2v.1h0l-.1-.1-.1-.2v-.4h0v-.3h-.2v-.3H49l-.1.1.1.2v.3h-.1v-.2l.1-.1v.1h-.1l-.1-.2h-.2l-.1-.1V68l-.3.3-.1-.1v-.3H48l-.1.1H48l-.2-.1h-.1l-.1-.1h-.4v-.1h0v-.1h-.1V68l-.1.2h0v.3l-.2.1v.3l-.1.1h-.2v-.1l.1-.1v-.2h-.1l-.1-.1-.1-.2-.1-.1h-.3l.1.2h0l.1.1h0v.7l.1.2.1.1h.1l.1.1v.2h-.3v.1l-.3.1-.2.2h-.1l-.2-.1V70l.1-.1v-.1h-.3v-.2h0v-.2l.1-.2-.1-.1H45v.4l-.3.3.1.1v.3l.1.1H45v.1l.1.2H45l-.3-.1.1.1.1.1.1.1h-.2l-.1.1v.2l.1.1.1.1v.1l.3.2.1.2.1.2v.1h0l-.1-.1-.1-.1-.1-.1h-.2v.1h0l.1.1.1.1v.2l-.1.1v.1l.1.1h.1l.2-.1H45v.1l-.1.3V73l.2.3.1.1.1.1h.3v.2h-.1v.2h0l.1.1.1.1h0l.2-.1H46l.1.1v.1h0v.1l.2.1-.2.2H46l-.1-.1v-.2l-.2.2-.1.2v.2l.1.3v.1h.1v.4h0v-.2l-.1-.1v.9l.1.1v.2l-.1.2v.6l-.1.1-.8-.2-.1-.1V77h-.3l-.5-.2-.4.2v.1l.1.2h-.1v.1h0v.1l.9.2.9.2-.2.2H45l-1.6-.4h-.1v.2l1.5.8-.3.1h-.3l-.4-.3-1.1.1-.4-.2h0V78h-.5l-.1.2h0l-.2-.1-.8.2-.3.3-.3.1-.2.2h-.7l-.6-.2-.7.1-.6.2H35.9v.1l.1.2.1.2.1.1h2.2l.1.1-.1.2-1.3-.1-1.3-.2-.1-.2-.1-.1h-.3v-.1l-.1-.2-.1-.2h-.2l-.3-.1-.3.1-.5-.2H33L31.5,78h0v-.6l-.3.1H31l-.2-.4h0v-.3l-.1-.2v-.1l.1-.2v-.1h-.2l-.1-.1-.1-.1v-.4h0v-.5l.2-.1h.1l.1.1h0l.1.1H31V75h.1l.2.1.2-.1.2-.2.1-.3-.4-.3L31,74l-1-.1-.8.1-.8.1-.5.2-.9.1H25.8l-1.4-.3-1.2.2H20.9l-.8.5-.6.8-.3.1-.1.1-.8.1-.8.1-.4.8-.6.3-.5.2-.1.1.1.1.2.4.1.2.3.3.1.1.2.1.3.3h.2l.4-.2.2.1-.1.2-.2.1-.2.2H17v.3l-.2.5v.8l.3.5v.2l-.1.6v.3l.1.4v.3l-.4.7-.3.2-.2.3v.3l.1.3v.1h0v.1l.1.3v.1l.5.5,1,.1,1,.1.2.2-.9-.1-.9-.1-.2-.1h-.2l-.4-.2-.3-.3-.1-.1V85l-.1-.1-.1-.2-.1-.2v-.2l.1-.2.3-.1.1-.1.4-.8-.1-.3V81.4l-.1-.3v-1l-.1-.2v-.2l-.1-.4v-.1h0l-.1-.1-.1-.1H16l-.1-.1-.1-.2-.1-.2v-.2l-.1-.1-.1-.1-.1-.1v-.1l.1-.2v-.5l.1-.4v-.2l.2-.1.1-.1v-.5l-.1-.2-.1-.2v-.1l-.3-.5-.1-.1-.5-.9h0v-.4l-.1-.1H14l-.4-.5h-.1v.5l.1.1.1.1v.2l.1.2.1.1h0v.4h0v.1l.1.3v.4l-.2.4-.3.1-.3.3h-.4l-.3.2-.6.1-1.1-.2-1.2-.5-.5-.5v.1l-.7.6-.2.3-.1.2h.1V77l.1.1v.2h.1l.6.4H9v.7l-.1.2H8.4l-.1.1v.6l-.1.1v.5l-.1.2-.1.2-.1.1h0l-1,.2h0l.1.1.7.4H8l.1.1.1.2.1.1v.8l-.4.5V83H8l1-.1H9v.3l.1.2.1.1v.2h0V84l.1.1v.4h0l-.3.2v.1H9V85l.1.1.1.1.1.1h.1l-.2.4-.2.2H9v.8H9l.1.1v.4l-.1.2H9v.2l.1.3h0l.1.3v.3h0v.4l.1.1h1.1v.3h0v.2h.2l.1-.1h.1l.6.2.1.1.1.1.1.1v.3h0l-.2.3v.2h0l-.1.1-.1.2h0v.2h.1l.7.2h0v.1h.2l.4-.1h.1l.1.1.3.3h0v.6h.3v.1h0v.1h.2l.5-.1,1.2,7v.1h0l1.1.5.1.2.1.2h0l.1.1h.1l.2-.2h.2v.3l-.1.1-.3.3v.4h0l.2.3v.2l-.2.3-.1.1h-.2l-.1.1-.1.4v.1h0l-.1.1H16V103h0v-.1h-.1v.7l-.1.1-1.3.6-.1.1-.2.3v.5h0l-.8.2-.3.2-.2.3-.1.1h-.4l-.1.1-.1.1H12l-.2.1h0v2.8l-.1.1-.4.1h0v.4h0l-.2.1-.2.4v.2h0v.4h-.2l.1.1h0v.4h0l.4.1.1.1h0v.2H11l-.2.1h-.2l-.3.2h-.2l-.4.2H9.5l-.1.1v.2h0l.1.1h0v.7l-.5.4H8.9v.5h0l.1.2.1.1.1.2v.3h0l.1.1h.3v.3h0l-.1.1v.9h0l.1.1h0l-.1.2v.2l-.1.1-.1.1v.3l-.1.1H9.1l-.3.1H8.5l-.4-.1h0l-.2-.3h0l-.9.2-.4-.1-.6.1-.1.1-.3.3-.2.5v.6h0l-.2.3H5l-2,1.2-.5.5-.3.2-.1.1-1,1.4h0v-.1h0l-.1-.1H.8l-.1.1-.1.2-.2.4v.4h0l-.4.3H0v.2l.1.1,3,4.5h0l.5,3.7v1.2l.3,1.5v1.1l.1.8v2.6l.1.7v1.9l-.1.3-.1.4h0l-.2-.2h0l-.2-.1H3.4l-.3.2v.1l-.2.4-.3.2H2.4l-.3.2h0v.8h0v.1l-.2.2L.7,145v.1l.1.1.3.3.1.1.1.1h.3l.1-.1h0l.1.1.1.1.1.1h.4v.7l-.2.3v.1h.1l.3-.2h.1v.4l-.1.1h0v.4h0l.3.1h0v.4l.1.3v.3l.1.1.1.1v.6h0v.1h0l-.2.2H3l-.2.1h0l-.1.2v.1l-.1.1v.5h0v.1h0v1.2l.1.1v.1h0l.1.1h.1l.3-.1h0v.5l.1.1.1.1h0v.2l.1.2.1.2V155h0v.9h0l-.1.1h0v.2h0l.3.1.2.1h.2v.1h.2v.3h0l.8.2h0v.2l-.2.4v1.9H5v.2H4.7l-.4-.1h0v.1h0l-.1.1h0v.2h0l-.2.3H4v.6H4l.1.1.1.1h0L4,161H3.8l-.1.1-.1.2-.1.2v.2h.4v.2h0l-.4.4-.1.1h0v.2l.5.4v.1h0v.2h0l.2.1h0v.1h0v.1h0l-.3-.1h0l-.1-.1-.1-.1H3.5l-.1.1h0v.2h0v.2l.1.2h0v.1H3.3l-.1-.1H3.1v2.3l.1.1h0v.2H3l-.1-.1H2.8v.2l.1.2h0v.3h0l.2.1.1.1h0v.4h.1l.1-.1h.2l.1-.1h.2l.2.1v.3H4v.1H4l.2.1h.3v-.1h.2l.1-.1h.1l.6-.1h0v0h0v-.1h0v-.1h.2l.1.1v.1h0v.1h0l.1.1v.1h0v.1H6l.4-.1h.2l.1.1h0l.1.1.3.1h.5l.1.1h0v.2h0l.3.2h.1l.3-.2.2-.2h.3l.1.1h.1v.2h0l.5.2.1.1.1.1h.4l.1-.1.1-.4v-.1h0l.2-.1.1-.1h.5v-5.1h.2l.1.2h0l.1.1h0v.9h0l-.1.1h0l.1.1h0v.2l-.1.3v.1l.2.1h0l.1.2.1.1v.1h0l.4.2h0v.1h0v.3l-.1.3v.1h0l.2.1h0v.5h0l-.1.1h-.1v-.1h0l-.4.2h-.1l-.1-.1h0l-.2.1h0v.5h0v.4h0l-.1.1-.1.1h2.1v.2l.1.1v.1h.1l1.4-.5H15l.1.1h0l.2-.1h0l.1.1h.3l.1.1h.1l.2-.1h.4l.1.1v.1l.1.1h.1v.2h0l.1.1.2.1h0v.3l.1.1h0v.3l.1.1h0l.1-.1h0l.1.1v2h.1v.1h0v.1h0l-.1.1h0v.7h0v.1h0v.3h0v.5h.1v.2h0v.6h0l.1.1.3.1h0v.2l.1.1h0v.2h0l-.2.1h-.1v.1h-.1v.1l-.1.1h0v.7h0l-.1.1h0v.6h0l-.4.1h0l.1.1h0v.2h0l.1.1h0v.2h.3l.1.1.2.2h0l.1-.1h0l.4.1h.4l.3-.1h.3v.4h0l.2.1h0v.3l.1.1h0v.1h0l-.7-1v.2l.1.1.2.2h0v.2h0v.1l-.2.3h0v.1h0v.4h0v.1l-.1.2v.1h0l-.1.1h0v.1l-.3.6h0v.1l-.1.1v.9l.1.3v.3h0l.1.1.1.1h.1v.2h0l.1.1.5.5v.5h0l-.1.1h0v.7l-.1.2v.6h0l.2.1H20l.4.1h.1l.1.1.1.1v.3h0v.1l.1.1.1.1h.5l.1-.1v-.1h.1l.2.1h0v.3h0v2.6l-.1.1v.6h-.1v.1h0l-.1.2v.3h0v.1l-.1.1v.5h0l.1.1h0v1.2h-.6v.1h0v.4h0l-.2.1h0v.4h0l-.1.1h0l-.1.1-.1.2v.2h0l.1.1h0v.2h-.1l-.1.1h0v.1h0v.3l-.1.1h0v.1h0v.3h0v.1l-.1.1v1.3h0v.2h0l.1.1h0v.3l-.1.1h0v1.6H20v.1h.1v.1h0l-.1.1-.2.3-.1.2v.9h.1v.3l-.1.1-.1.2h0l-.1.2v.2l-.1.1v.1h0v.1h0l2.6.9v.1h0l.1.1h.2v.1h-.1l-.2.2h0v.3h1v.3h0l.1.1h0v.2h.4v.6h0l.1-.1h.2v.1l.1.2.1.1h0v.1h0l.1-.1h0l.1-.1h.9l.1-.1h.2l.1-.1v-.1h0v-.1h.1l.4-.1h0l.1-.2h0v.6h0l.1-.1h0v-.1l-.1-.1h0v-.2h0l.1-.1h0V205h0l.1-.1h.5l.3.1h.6v-.1l.1-.1h.1l.1.1h0l.2.1h.1l.1-.1v-.2h0l.1-.1h.1l.4-.1h.3l.2.1h.1l.1.1h0l.1-.2.2-.3v-.1h0l.4-.1h.2v-.5h0l.3-.4h0v-.2l.2-.5.1-.2h.3v.2h0l.1.1.1.1h0v.2l-.1.1v-.3l.1.1h0v.2h.2l.3-.3h.5l.2-.1h2.5v.3h-.1v.2h0l-.1.2-.1.3v.1h0v.8l.1.2v.8h.1v.1h0l.1.1h0l.1-.3.2-.4v-.1h0l-.1-.1-.1-.2h0v.1h0v.1l.1.1h.2l.1-.1v-2.3h0v-.1l.2-.2.3-.1h0l.1-.2h.1l.1.1h.1l.1-.1h.4l.1-.1h0l.3.1h0l.1-.1.1-.1.1-.2.1-.1.1-.1.1-.2.1-.1h0v-.5h0l-.2-.1h0v-.4l.1-.1h.1l.2-.4v-.1h0v-.2h0V199l.1-.1.5-.3.1-.2v-.1h0V198h.1l.1-.1H40v-.4h0l.4-.1v-.3l.1-.1v-.3h0v-.1h0v-.3h0l.8-1,.1-.1h0v-.1h0l-.1-.1h0v-.5h0l.1-.1h0v-.1l.1-.2.1-.4v-.1h.1l.1.1h.1l.2-.3.3-.4v-1h0v-.1l.4-.5.5-.4,1-.5h.2l.4.3h.7l.1.1h.4l.2.1h.2l.2-.1h.1l.9.1h.1l.1.1.1.1.4.4h.3l.1.2v.1l.1.1.3.1.1.1h0v.1h0l.1.1.1.1h0v.3h.3l.1-.1H50l.2.1h0l.2-.1h.1v.2l-.2.3H49v.4l.4.3h.2v.7h0v.4h0v.1l-.2.3-.1.1v.1h2.8l.2.1h0l.1.1h.2l.2.1h.1l.4-.1h.1l.2.1h.2l.1-.3.2-.2.1-.1h0l.1.1v.1h0v.1h0v.2h.4v-.9l.1-.2v-.1h.1l.1-.1h.3l.2-.1h.2v.2l.1.3.1.1h0l.5.1h.1l.2.2.3.1h.3v.5h.2v.1h-.1v.1h0v.1h0l-.2.1v.2h0v.4l.1.2v.2l.1.4.2.2h1.7l.1.4v.1h-.1v.5l.1.1.3.1h.1v.8l.1.2v1.2l-.1.1v.4h-.1v.1l.1.1h.8l.1.1.1.1h.3v.8l-.1.1v.4l.2.1v.6l.1.1.2.3v.2h0v.4h0l.1.1h0v2.5H62l.1.1.1.2v.3l.1.1v.6h0v.1h.3v-.1l.1-.2v-1.5h0l.1-.1.3-.1h.1l.1.1h.1v.3h0l-.1.1h0v.1h0v.4h0v.2h0v.3h.3l.1.1h0v.1l.1.2.1.2v.2h0l.1.1.3.2h0v.2l-.1.1-.1.3v1.8h0l.1.1.2.1h2.3l.1.1.1.1.1.1v.1l.1.1h.4l.4-.1.1-.1.5-.5.2-.4.1-.1h.1l.6-.3H70v-.1h.6l.1-.1h.4l.1-.1h.2l.1.1.1.1v.1h.2v-.1h.1l1.1-.1h.2l.3.2h0v.2l.1.2h0l.2.1h.1l.1.2v.3h0l.3-.1,1-.1h.1l.1-.1h0l.6-.1h0l.1.2.1.1.2.1.1.1h.5l.4.1h0v.1h0l.2.1h.1v.1h.3v-.5h.3v0h0v-.1h0v-.1h0l.3-.1h0v.2h.1l.4.1h.1l.4.2.7.1.5-.1h.3l.1-.1h1l.1-.1h.4l.1.1.1.1h.1v.1h0l.1.1h0l.1.1h.4v.1h0l.1.1.1.1.1.1h0v.1h0v.1h0v.2h.5v.1h0l.1.1h0v.1h0v.1l.1.1v.3h0l.1.1.1.1h3l.2-.2h.5l.2.1h.9v-.1h0l.3-.2.2-.1h.9v.1h0l.2.1h.3l.1-.2v-.1l.5-.4h.2l.5.1H93l.3.2h.2l.1.1v.3h.3v.1h-.1v.3H94l.6-.2h.9l.1-.1.1-.1h0v-1.2h0l.2-.2.1-.1h1.4v.3h.2v-.1h.5l.1-.1.1-.1.1-.1v-.1h0v-.1h.4l.4-.1h0v-.1h.2l.1-.1h.1v.2h0l.1.1v.1h.5v.1h0l.1-.1h.1v-.9l.1-.1h.5v.2h0l.5-.1.3-.2h.3l.1-.1h.2l.1-.1h.4l.4.2h.2l.1.1h.1l.5-.1.1-.1h.1v.1h.3l.1-.1v-.1h.1l.3-.1h.2l.2-.2h0v-.6h0v-.1l-.2-.1h0v-.1h0l.6-.4v-.1l.8-.3h0v-.2h.2l.2-.1h.2l.1-.1h.2l.2-.1h.1l.1.1h.2v-.1h.2l.3.1h.2l.1-.1h.2l.1-.1.1-.1,3.4.5.1-.1h0l.1-.1.5-.2h.2l.5.1h.3v-.7l-.1-.1h0l-.1-.1h0l-.1-.4v-.1l.1-.1h0v-.2l-.1-.3v-.7h0v.2h0v-.3l.2-.3v-.5h0l-.1-.1-.1-.2v-.1h0v-1l.1-.2v-.1h.1l.2-.1h0v.1h.1v.1h.1v-.2h-.1v-.1h0l.1-.3h0v-.3h.2v-.4h.3v.3h0l.1-.1h0v-.1h0l-.1-.1h0v0h0v-.3h0v-.2h-.1v-.1h0v-.2l.1-.1v-.1h.1v-.1h0v.1h0v-.2h-.3l-.1-.1H113V201h-.1l-.1-.1v-.1h-.1v-.1h-.1v-.1h.1l-.7-.1h-.1v-.2h-.1v.2h-.1l-.1-.1v-.1l-.1-.1-.1-.1-.1-.1h-1v-.6h.1l.1.1.1.1h.7l-.1-.1v-.1h.3l-.1-.1-.1-.1-.1-.1h0v-.7l.1-.1.1-.1.2-.3h0v-.1h-.2v-.1h.2l.1-.2v-.1h.6v-3H112v-.1h0l.1-.1v-.3h0l-.2-.2-.2-.1h-.2v-.2h0l-.2-.1H111v-.1l.1-.3v-.1h-.2l-.6-.3h0v-.1h.1v-.1h0l-.1-.1H110v.2l-.1-.1h-.3v-.1h.1l.1-.1h.2l.1-.1h.1l.1-.1h-.2l.1.1h.1l.1-.1h.1l.1.1.2.2h.2l.1.1h0l.2.1h.1v-.1l.1-.1v-.1H111v-.4h0l-.1-.1h0v-.1h0v-.1h0l.1-.3h.1l.1.1h.1v-1.8l-.1-.2V189h0v-.2h-.1l-.1-.1h0v-.3h0v0h0l.3-.1.1-.1h.5v-.1h0l-.1-.1h0l.1-.1v-.2l.1-.3h0l.2-.2v-.1h-.1v-.7H112v-.8l.3-.1h.5v-.4l.1-.3h-.1l-.1-.1h0v-.1h0l.1-.1h0v-.1h0l-.1-.1h0v-.1h0l.2.1h.1l.1-.5v-.1l.1-.2h0v-.1h.2v-.2h.2V183l.1-.1v-.2h0l.1-.1.2-.2h.2v.2h.1l.5-.1.1-.1.2-.2h0l.2-.1.4-.2h.2l.3.1.2.1h.3l.4-.1h.5v-.3l.1-.1h0l.2-.1h0l.1-.1h.2v-1.6h.3l.1-.2h.3l.2-.1h0l.1.1h.1l.2-.1h0v-.4l.1-.1h0v-.1h-.1v-.5h0V178h0v-.6l.2-.5.1-.2h0v-.3h0v-.1h0l.1-.1h0l.1-.2.1-.1h.5l.1.1h.1l.2-.1h.1l.2.2h.2l.1-.1h.4l.1-.1.1-.1h.1l.1.1h.1l.2-.1h.3l.2-.1h.1l.4-.1h0v-.2h0l.4-.4h.2v-.1l.1-.1.3-.1.1-.1v-.2l.1-.2h0v-.5h.3v-.1h0l-.1-.1v-.3l.2-.7v-.1h0l.7-.4h.3l.2-.1h0v-.3h.2l.1.1.1.1h0v.3h.1l.1-.1.4-.1h0l.1-.2.1-.1v-.2h-.2l-.1-.3h0v-.6l.1-.2v-.1h0l-.1-.1h0V170h0l-.1-.1h0v-.4h0l-.2-.1h0V169H127v-.2h0v-.4l.1-.1v-.1l.1-.1h0v-.4h0l-.1-.2H127v-2h0l.1-.1h0v-.2h0v-.4h.1V164h-.6v-.1h0l-.1-.1h0v-.1h-.1v-.1h0l-.1-.1h0v-.2h0v-.1h0v.1h0l.1-.1.2-.1h0v-1.7h0v-.1h-.1l-.1-.1h.3v-.3h0l.2-.1h0l.1-.3v-.1l.1-.1H127v0h0v-.5l.1-.2h0v.1h0l.2-.3h.8l.1-.1v-.6h-.1v-.2l.1-.1h0l.5-.1h0l.1-.1.1-.2.1-.1h0v-1.5h.3l.1-.1h0v-.5l.1-.2v-.2h0v-.5h0l.1-.1v-.2h0v-.1h0l.1-.1v-.1l.1-.3v-.3l.1-.1V153h-.1v-.6h.4v-.2h0V152h0l.1-.1h0v-.4h-.1l.1-.2v-.9l-.1-.1v-.1h0V150h0l-.1-.1h0v-.3l-.1-.2h0v-1.1l.2-.2h.5v-.2h0v-.3h0l-.1-.1h0v-.1l.1-.3h0l.1.1h.3l.1.1h0v-.1h0l.1.1h.1l.1-.1h0v.1h.1V147h.2l.1-.1h0l.2.2.1.1.1.1.3.2h0l.1.1h.1l.4.1h.1l.1.1v.1l.1.2h0l.1.1h2l.1.1h.1v-.1h0l.1-.1h.6v.1l-.1.1h.5v-.7h.3v.1h.1l.3.1h0v.1h.2l.3-.1h0v.2h.1v-.1h0v-.1h0v-.3h0l.2-.1h0v-.2h.3l.1-.1h0l.1.1h0l.1-.1h.2l.1.1h.2l.1-.1h0v.3l-.1-.1h0V147l.1-.4v-.2l-.1-.3V146h0l.1-.1.1-.1h.1v.1l.1.1h0l.5.1h.1V146h.1l.2.1h0l.1-.1,2.1.5h.2v.1h0l.1.1h0v.1l-.1.2v.1h.3v-.2l.1-.1h0v-.2h0v-.2h0l.2-.1h0l.1-.3v-.1h0l.1.1.1.1h0v.1h0v.2h0v1.1h0l.1.1h0v.1h.4l.1-.1.2-.1h.3v-.3h0l.1-.1.1-.1h0v-.3l.1-.1.1-.1.1-.1h0l.1-.2v-.1h-.1l.1-.1h-.1v-.4h0l.1-.1.1-.1h0v-.3h0l.1-.1-.2-.2h0v-.3h.1v-.1h.1l.1-.1v-.1l-.1-.1h0V144h.2l.1-.2h0v-.1h0l.1-.1v-.1h-.1v-.1h0v-.1h-.1v-.5h0l-.2-.1h1v-.3h0v-.1h.4v-.1l.1-.2.1-.2h-.1l-.1-.1h-.1v-.2h0v-.1h0l-.1-.1h0v-.1h-.1l-.1-.1h-1v-.2l-.1-.4v-.1h0v-.1l-.1-.3h0l-.1-.1h0v-.3h-.1v-3.2h0v-.2h0l-.3-.4-.1-.1h0v-.2l-.1-.3V135h0l.1-.4v-.2h0v-1h0l-.1-.2-.1-.2v-.6h0v-.5h0l.1-.1h0v-.1h0l-.1-.2h0v-.1h-.1l-.1-.1h0v-.1h0l.5-.4v-.4l.3-.2.1-.1.3-.3.1-.1.1-.3v-.1l-.1-.2v-.2l.2-.3v-.3h0v-2.2h.1l.2-.1,1.8-.3.6.2h.1l.1.1h.3v-.1h0v-.1h-.1v-.1h0l.9-.8h0l.1.1.1.1h0v.1l-.1.1v.2h.4l.1-.1h.2v.2h.2v-.2h-1.2l.1.1h.1v-.4l.1-.4v-.1h0l-.1-.2h0v-.7h0v-.3H150v-.1h-.1l-.1-.1h-.1l-.1-.1h-.5v-.9h0l-.1-.1h0v-.2l.2-.2v-.5l.1-.4v-.1h.5l.2.1h0v.2l.1.1.4.1h.2l.1-.1.1-.1.3-.1.3-.3.6-.3h.1l.2.1h.4v-.2h.6v-.5l.2-.7.1-.1.2-.3.3-.2h.4l.8.1h0l.1.1v.1h0v.8h0v.1h0l.1.1.1.1.3.2h.2l.1.1h.1l.2-.1.4-.1h.3l.5-.1h.1v-.4h0l-.1-.1h0l.7.2h0v-.3h0l-.1-.2h0l-.1-.1h0l.1-.1,1-.5.2-.9.1-.1h.2l.1-.1h0v.1h.5l.1.1h0v-.1l-.2-.7v-.3l1-.9.4-.5h.5l.2.1h0v.4h.2l.1-.1.1-.1v-.1l.3-.4v-.2h0l-.1-.1-.1-.1-.2-.3h0l-.1-.1-.1-.1v-.1l.2-.5.1-.2v-.2l.3-.7v.2h0l-.1-.1-.3-.2h0v-.1h-.3v-.2h0v-.1h0v-.1l-.1-.1-.1-.1h0l-.1-.1h-.1v-.4l.1-.4h0v-.1h-.1l-.1-.2h0v-.6h0v-.1h.3l.1-.2h.2l.1-.1.2-.3h.2v-1.5l.2-.3.2-.4.2-.1h0v-.6h0l-.3-.1h-.1l-.1-.1h0v-.3h0v-.7h0l-.1-.1h0v-.1h0v-.4h0l-.2-.1h0l-.1-.1-.1-.1h0l-.1-.1v-.4l.2-.2v-.4l.3-.1.4-.3.2-.1h.3v.1l.1.2h.1v-.1l.2-.2v-1h0v-.1h0v-.2h0v-.1h-.1l-.4.1h0l.1-.7V98.4l.2-.4.1-.1h.2l.1.1h.1l.7-.1h.1l.1.1.1.1h.2l.3-.3v-.2h0v-.1l.1-.1.1-.2.1-.1h-.6l.3-.3.2-.2h0l.2.1h.1l.1-.1.2-.2h.9l.2-.1h.1l1-.4h.1l.1.1h.1v-.2l.1-.2v-.2h0v-.1l.1-.2v-.4h.1l.5.4.1.1.7.2h.2v.4h0l.3.1h.3l.2-.1.7-.5v-.2h0l-.1-.1h-.1v-.1l.4-.6v-.7l.1-.2.6-.5.4-.6h.7l.5-.2h0l-.3-.2-.1-.2-.1-.1-.1-.1h0v-.1h0v-1l-.2-.1-.3-.2h-.3v-.2l.1-.2h0v-.2l-.1-.1h0v-.6l.1-.1v-.4l-.2-1v0l.1-.1.1-.2.1-.4v-.2h0l-.1-.1h-.1v-.1h0v-.1H173l-.1-.1h0v-.5h0l-.3-.1-.1-.1h0l-1-.1h-.1l-.2.2h-.1l-.2-.1h-.4l-.2-.1H170l-.5-.1h0l-.2.1h-.1L169,85l-.2-.1-.1-.1V83.7h-.5v-.3H168l-.1-.3v-.2h.1v.3h0v-2l.2-.4.4-.2h.2l-1.7-.1.1-.1.1-.1h0v-.1h-.1l-.1-.1-.2-.2h-.2l-.3.2h-.2V80l-.1-.2v-.2h0v-.1l.2-.3v-.6l-.2-.4v-.3l.3-.5.5-.6.9-.5h0v-.1l.2-.3.9-.8.1-.2.1-.1.4-.2h.1l.1.1h.1l-.1-.2h0v-.1h0v-.1h0l3.2-2.2v-.2l.1-.2.1-.6.3-.5.1-.1.7-1h.2l1.4-.7h.2l.6-.1h.1v-.2ZM63,76.3h0v-.4l.3-.1-.2-.2-.1-.2-.1-.1h-.7l-.7.4-.7.4-.1.1h0l.9.5h.1l.3-.1h.3l.2.1h.1l.3-.3h0ZM9.1,70.5l.3.3,1.1.3.4.3.3.3.1.1h.9l.3.2.2-.1.3.1.2-.2.1-.5v-.4l.1-.2.3-.2.1-.2v-.2l.1-.2v-.1l-.1-.1.2-.3.1-.3-.1-.3.1-.1v-.5L14,68v-.1l-.1-.2-.2-.1-.8-.1-.8.2-1-.2h-.9l-.3.2v.7h0l.1.2V69l.1.1-.1.3-.1.2-.1.1H9.7l-.3-.2H9.2l-.4.3-.1.2v.3Zm66-32.4h0l.1.2.1.1h.2l-.1-.1h-.2l-.1-.2Zm4.4,18v-.4l-.1-.2-.1-.3-.2-.2-.4-.2-.4-.4h-.1l-.2-.1-.2-.1h-.1l-.5-.2-.7-.5-.4.1-.1-.2h-.1l.1.1.1.1.2.5.2.2h.3l.4.3.1.1.1.2.1.2.1.1,1.2.7.1.2.1.1.1.1.2.1h0v-.2ZM75.3,37.4h0l-.2.2h0l-.1.2V38l.3-.6Zm-4.5-.5h0v.6h0v1.4l.1.3.3.5.1.3v.5l.1.3V41l-.1.1v.3l.1.1.1.1v.3l.1.2,1-.4.2-.5v-.4l-.1-.1-.1-.2-.1-.2V40l.2-.9v-.2l.2-.1h-.2l-.2-.1-.2-.1H72l-.2-.2h-.1v-.1l-.1-.2-.1-.1h-.1l-.1-.4-.2-.2-.2-.2-.1-.3-.1-.3h-.1v.1l.1.3ZM62.4,72.4l-.4.3-.2.3-.6.2-.3.2-.2.5v.2l1-.1,1-.1.7-.1.3-.2.1-.4-.2-.5-.7-.4Z" transform="translate(0.13 0.13)"/></svg>