<svg width="8" height="14" viewBox="0 0 8 14" version="1.1" xmlns="http://www.w3.org/2000/svg" xmlns:xlink="http://www.w3.org/1999/xlink">
<title>arrow__right-white</title>
<desc>Created using Figma</desc>
<g id="Canvas" transform="translate(-254 -2661)">
<g id="arrow__right-white">
<g id="Line 3">
<use xlink:href="#path0_stroke" transform="matrix(6.12323e-17 1 -1 6.12323e-17 260 2662)" fill="#FFFFFF"/>
</g>
</g>
</g>
<defs>
<path id="path0_stroke" d="M -0.640184 4.23178C -1.06446 4.58534 -1.12179 5.21591 -0.768221 5.64018C -0.414657 6.06446 0.215907 6.12179 0.640184 5.76822L -0.640184 4.23178ZM 11.3598 5.76822C 11.7841 6.12179 12.4147 6.06446 12.7682 5.64018C 13.1218 5.21591 13.0645 4.58534 12.6402 4.23178L 11.3598 5.76822ZM 6 0L 6.64018 -0.768221L 6 -1.30171L 5.35982 -0.768221L 6 0ZM 0.640184 5.76822L 6.64018 0.768221L 5.35982 -0.768221L -0.640184 4.23178L 0.640184 5.76822ZM 5.35982 0.768221L 11.3598 5.76822L 12.6402 4.23178L 6.64018 -0.768221L 5.35982 0.768221Z"/>
</defs>
</svg>
