<svg width="30" height="30" viewBox="0 0 30 30" version="1.1" xmlns="http://www.w3.org/2000/svg" xmlns:xlink="http://www.w3.org/1999/xlink">
<title>icon_phonecall</title>
<desc>Created using Figma</desc>
<g id="Canvas" transform="translate(691 -1588)">
<g id="icon_phonecall">
<g id="Group">
<g id="Group">
<g id="Vector">
<use xlink:href="#path0_fill" transform="translate(-691 1589.74)" fill="#FFFFFF"/>
</g>
<g id="Vector">
<use xlink:href="#path1_fill" transform="translate(-675.49 1593.44)" fill="#FFFFFF"/>
</g>
<g id="Vector">
<use xlink:href="#path2_fill" transform="translate(-675.247 1588)" fill="#FFFFFF"/>
</g>
</g>
</g>
</g>
</g>
<defs>
<path id="path0_fill" d="M 23.7221 16.8487C 23.107 16.2092 22.3652 15.8673 21.5789 15.8673C 20.799 15.8673 20.0507 16.2028 19.4103 16.8423L 17.4066 18.8368C 17.2417 18.7482 17.0768 18.6659 16.9183 18.5836C 16.69 18.4696 16.4744 18.362 16.2906 18.248C 14.4136 17.0576 12.7079 15.5064 11.072 13.4992C 10.2794 12.4988 9.74673 11.6567 9.35993 10.8019C 9.87988 10.327 10.3618 9.83314 10.831 9.35826C 11.0086 9.18098 11.1861 8.99736 11.3637 8.82007C 12.6953 7.49041 12.6953 5.76819 11.3637 4.43853L 9.63259 2.70997C 9.43602 2.51369 9.23311 2.31107 9.04288 2.10846C 8.66243 1.71589 8.26295 1.31066 7.85079 0.930761C 7.23572 0.322917 6.50017 8.69528e-09 5.72658 8.69528e-09C 4.95299 8.69528e-09 4.20476 0.322917 3.57067 0.930761C 3.56433 0.937093 3.56433 0.937093 3.55799 0.943424L 1.40207 3.1152C 0.590434 3.92566 0.127547 4.91341 0.026092 6.05944C -0.12609 7.9083 0.419229 9.63053 0.83773 10.7576C 1.86496 13.5245 3.39946 16.0889 5.68854 18.8368C 8.46586 22.1483 11.8075 24.7633 15.6248 26.6058C 17.0832 27.296 19.0298 28.1128 21.2048 28.2521C 21.3379 28.2584 21.4774 28.2647 21.6043 28.2647C 23.069 28.2647 24.2991 27.7392 25.263 26.6945C 25.2693 26.6818 25.282 26.6755 25.2883 26.6628C 25.6181 26.2639 25.9985 25.903 26.398 25.5168C 26.6706 25.2572 26.9496 24.9849 27.2223 24.7C 27.8501 24.0478 28.1798 23.288 28.1798 22.5092C 28.1798 21.7241 27.8437 20.9706 27.2033 20.3374L 23.7221 16.8487ZM 25.9922 23.516C 25.9858 23.516 25.9858 23.5223 25.9922 23.516C 25.7449 23.7819 25.4912 24.0225 25.2186 24.2884C 24.8064 24.681 24.3879 25.0926 23.9948 25.5548C 23.3543 26.2386 22.5998 26.5615 21.6106 26.5615C 21.5155 26.5615 21.414 26.5615 21.3189 26.5552C 19.4357 26.4349 17.6856 25.7004 16.373 25.0736C 12.784 23.3387 9.63259 20.8756 7.01379 17.7541C 4.85153 15.1518 3.4058 12.7457 2.44832 10.1624C 1.85862 8.5858 1.64303 7.35744 1.73814 6.19874C 1.80155 5.45793 2.08689 4.84376 2.61319 4.31822L 4.77544 2.15911C 5.08615 1.86785 5.41588 1.70956 5.73926 1.70956C 6.13874 1.70956 6.46213 1.95017 6.66504 2.15278C 6.67138 2.15911 6.67772 2.16544 6.68406 2.17178C 7.07086 2.53268 7.43863 2.90625 7.82543 3.30515C 8.022 3.50777 8.22491 3.71038 8.42781 3.91933L 10.1589 5.64788C 10.831 6.31904 10.831 6.93955 10.1589 7.61071C 9.975 7.79433 9.79745 7.97795 9.61357 8.15524C 9.08093 8.69977 8.57366 9.2063 8.022 9.70018C 8.00931 9.71284 7.99663 9.71917 7.99029 9.73184C 7.44497 10.2764 7.54643 10.8082 7.66056 11.1691C 7.6669 11.1881 7.67324 11.2071 7.67959 11.2261C 8.12979 12.3152 8.76388 13.3409 9.7277 14.5629L 9.73404 14.5693C 11.4841 16.722 13.3293 18.3999 15.3648 19.6853C 15.6248 19.8499 15.8911 19.9829 16.1447 20.1095C 16.373 20.2235 16.5886 20.3311 16.7725 20.4451C 16.7978 20.4577 16.8232 20.4767 16.8486 20.4894C 17.0641 20.597 17.2671 20.6477 17.4763 20.6477C 18.0026 20.6477 18.3323 20.3184 18.4401 20.2108L 20.6087 18.0454C 20.8243 17.8301 21.1667 17.5705 21.5662 17.5705C 21.9593 17.5705 22.2827 17.8174 22.4793 18.0327C 22.4856 18.039 22.4856 18.039 22.492 18.0454L 25.9858 21.5341C 26.6389 22.18 26.6389 22.8448 25.9922 23.516Z"/>
<path id="path1_fill" d="M 0.704618 1.69568C 2.36594 1.97427 3.87508 2.7594 5.07985 3.96243C 6.28463 5.16545 7.06456 6.6724 7.3499 8.33131C 7.41965 8.7492 7.78109 9.04046 8.19325 9.04046C 8.24397 9.04046 8.28836 9.03413 8.33909 9.0278C 8.80832 8.95181 9.11902 8.5086 9.04293 8.04005C 8.70052 6.0329 7.74938 4.20303 6.29731 2.75307C 4.84524 1.30311 3.01271 0.353356 1.00264 0.011444C 0.533414 -0.0645365 0.0958896 0.245717 0.0134576 0.707932C -0.0689744 1.17015 0.23539 1.6197 0.704618 1.69568Z"/>
<path id="path2_fill" d="M 14.2341 13.2336C 13.6698 9.92849 12.1099 6.92093 9.71307 4.52754C 7.3162 2.13415 4.30426 0.576554 0.994296 0.0130316C 0.531409 -0.0692806 0.0938854 0.247305 0.0114534 0.70952C -0.0646376 1.17807 0.246068 1.61495 0.715296 1.69727C 3.67017 2.19747 6.36506 3.59678 8.50829 5.73056C 10.6515 7.87068 12.0465 10.5617 12.5475 13.5122C 12.6172 13.9301 12.9786 14.2214 13.3908 14.2214C 13.4415 14.2214 13.4859 14.2151 13.5366 14.2087C 13.9995 14.1391 14.3166 13.6959 14.2341 13.2336Z"/>
</defs>
</svg>
