<svg width="29" height="21" viewBox="0 0 29 21" version="1.1" xmlns="http://www.w3.org/2000/svg" xmlns:xlink="http://www.w3.org/1999/xlink">
<title>right-arrow</title>
<desc>Created using Figma</desc>
<g id="Canvas" transform="translate(-178 -780)">
<g id="right-arrow">
<g id="Vector">
<use xlink:href="#path0_fill" transform="matrix(-1 -1.22465e-16 1.22465e-16 -1 206.595 800.186)" fill="#FFFFFF"/>
</g>
</g>
</g>
<defs>
<path id="path0_fill" d="M 18.789 0.352294C 18.7003 0.247137 18.5913 0.161669 18.4688 0.10121C 18.3462 0.0407505 18.2128 0.00659331 18.0767 0.000863753C 17.9406 -0.00486581 17.8048 0.0179549 17.6778 0.0679059C 17.5507 0.117857 17.4352 0.193869 17.3382 0.291212C 17.2413 0.388555 17.1651 0.505146 17.1144 0.633729C 17.0637 0.762311 17.0396 0.900135 17.0435 1.03862C 17.0474 1.17711 17.0793 1.31329 17.1372 1.4387C 17.195 1.56411 17.2777 1.67607 17.3799 1.76759L 24.4696 8.97929L 0.985126 8.97929C 0.851347 8.9791 0.718935 9.00666 0.595985 9.06029C 0.473035 9.11393 0.362133 9.19251 0.270058 9.29123C 0.177984 9.38995 0.106673 9.50674 0.0604857 9.63445C 0.0142989 9.76217 -0.00579316 9.89812 0.00143826 10.034C 0.00026927 10.1666 0.0247864 10.2981 0.0735896 10.4211C 0.122393 10.544 0.194526 10.656 0.285871 10.7506C 0.377216 10.8452 0.485983 10.9205 0.605962 10.9724C 0.725941 11.0242 0.854781 11.0515 0.985126 11.0527L 24.5227 11.0527L 17.4331 18.2644C 17.2496 18.4562 17.1469 18.7133 17.1469 18.981C 17.1469 19.2487 17.2496 19.5058 17.4331 19.6977C 17.5247 19.7934 17.6343 19.8694 17.7553 19.9213C 17.8763 19.9733 18.0063 20 18.1376 20C 18.269 20 18.3989 19.9733 18.5199 19.9213C 18.641 19.8694 18.7505 19.7934 18.8422 19.6977L 27.7042 10.6831C 27.7978 10.5914 27.8722 10.4815 27.923 10.3599C 27.9738 10.2383 28 10.1075 28 9.97541C 28 9.84329 27.9738 9.71252 27.923 9.59093C 27.8722 9.46934 27.7978 9.35943 27.7042 9.26776L 18.789 0.352294Z"/>
</defs>
</svg>
