<svg width="32" height="23" viewBox="0 0 32 23" version="1.1" xmlns="http://www.w3.org/2000/svg" xmlns:xlink="http://www.w3.org/1999/xlink">
<title>right-arrow</title>
<desc>Created using Figma</desc>
<g id="Canvas" transform="translate(-175 -778)">
<g id="right-arrow">
<g id="Vector">
<use xlink:href="#path0_fill" transform="matrix(-1 -1.22465e-16 1.22465e-16 -1 206.595 800.186)" fill="#1E201D"/>
</g>
</g>
</g>
<defs>
<path id="path0_fill" d="M 21.2016 0.390803C 21.1016 0.274151 20.9786 0.179341 20.8403 0.112273C 20.702 0.0452049 20.5514 0.00731402 20.3978 0.000958168C 20.2443 -0.00539768 20.0911 0.0199175 19.9477 0.0753286C 19.8044 0.13074 19.6739 0.215061 19.5646 0.323044C 19.4552 0.431027 19.3693 0.560362 19.312 0.703C 19.2548 0.845638 19.2276 0.998526 19.232 1.15215C 19.2364 1.30577 19.2724 1.45685 19.3377 1.59597C 19.403 1.73508 19.4962 1.85927 19.6116 1.9608L 27.6116 9.9608L 1.11162 9.9608C 0.960666 9.96058 0.811251 9.99115 0.672514 10.0507C 0.533777 10.1101 0.408633 10.1973 0.304735 10.3068C 0.200838 10.4163 0.12037 10.5459 0.0682525 10.6876C 0.0161349 10.8292 -0.00653704 10.9801 0.00162294 11.1308C 0.000303846 11.2779 0.0279691 11.4238 0.083039 11.5602C 0.138109 11.6966 0.219505 11.8208 0.322579 11.9257C 0.425653 12.0306 0.548387 12.1142 0.683772 12.1717C 0.819156 12.2292 0.964541 12.2595 1.11162 12.2608L 27.6716 12.2608L 19.6716 20.2608C 19.4645 20.4736 19.3487 20.7589 19.3487 21.0558C 19.3487 21.3528 19.4645 21.638 19.6716 21.8508C 19.775 21.9569 19.8987 22.0413 20.0352 22.0989C 20.1717 22.1565 20.3184 22.1862 20.4666 22.1862C 20.6148 22.1862 20.7615 22.1565 20.898 22.0989C 21.0346 22.0413 21.1582 21.9569 21.2616 21.8508L 31.2616 11.8508C 31.3672 11.7491 31.4511 11.6272 31.5085 11.4923C 31.5658 11.3574 31.5954 11.2124 31.5954 11.0658C 31.5954 10.9192 31.5658 10.7742 31.5085 10.6393C 31.4511 10.5044 31.3672 10.3825 31.2616 10.2808L 21.2016 0.390803Z"/>
</defs>
</svg>
