<svg id="Capa_1" data-name="Capa 1" xmlns="http://www.w3.org/2000/svg" viewBox="0 0 512 512"><defs><style>.cls-1{fill:#fff;}</style></defs><title>play-arrow</title><path class="cls-1" d="M374.58,238.6,224,140a21.6,21.6,0,0,0-11.78-3.71c-10.65,0-18.69,8.67-18.69,20.17v199.1c0,11.5,8,20.17,18.68,20.17A21.57,21.57,0,0,0,224,372l150.63-98.63c6.27-4.11,9.87-10.45,9.87-17.39S380.86,242.71,374.58,238.6ZM222.43,338.43V173.57L348.32,256Z" transform="translate(0 0)"/><path class="cls-1" d="M256,0C114.84,0,0,114.84,0,256S114.84,512,256,512,512,397.16,512,256,397.16,0,256,0Zm0,483.06C130.8,483.06,28.94,381.2,28.94,256S130.8,28.94,256,28.94,483.06,130.8,483.06,256,381.2,483.06,256,483.06Z" transform="translate(0 0)"/></svg>