<svg id="Capa_1" data-name="Capa 1" xmlns="http://www.w3.org/2000/svg" viewBox="0 0 511.99 512"><defs><style>.cls-1{fill:#fff;}</style></defs><title>telephone</title><path class="cls-1" d="M389.26,338.7c-16.73-16.51-37.61-16.51-54.23,0-12.68,12.57-25.36,25.14-37.82,37.93-3.41,3.52-6.29,4.26-10.44,1.92-8.2-4.47-16.94-8.1-24.82-13-36.76-23.12-67.55-52.85-94.82-86.3-13.53-16.62-25.57-34.41-34-54.44-1.7-4-1.39-6.71,1.92-10,12.68-12.25,25-24.82,37.5-37.4,17.37-17.47,17.37-37.93-.11-55.51-9.91-10-19.82-19.82-29.73-29.83C132.49,81.82,122.37,71.49,112,61.37c-16.73-16.3-37.61-16.3-54.23.11C45,74,32.77,86.94,19.77,99.3,7.73,110.7,1.66,124.65.38,141c-2,26.53,4.47,51.57,13.64,76,18.75,50.5,47.3,95.36,81.93,136.48C142.72,409,198.55,453,263.86,484.77c29.41,14.28,59.88,25.25,93,27.06,22.8,1.28,42.62-4.47,58.49-22.27,10.87-12.15,23.12-23.23,34.63-34.84,17-17.26,17.15-38.14.21-55.19Q419.83,369,389.26,338.7Z" transform="translate(-0.01 0)"/><path class="cls-1" d="M368.91,253.78l39.31-6.71A176.47,176.47,0,0,0,259,102.28l-5.54,39.53a136.38,136.38,0,0,1,115.49,112Z" transform="translate(-0.01 0)"/><path class="cls-1" d="M430.38,82.89A289.89,289.89,0,0,0,264.18,0l-5.54,39.53A252.95,252.95,0,0,1,472.68,247L512,240.25A292,292,0,0,0,430.38,82.89Z" transform="translate(-0.01 0)"/></svg>