<svg width="117" height="63" viewBox="0 0 117 63" version="1.1" xmlns="http://www.w3.org/2000/svg" xmlns:xlink="http://www.w3.org/1999/xlink">
<title>down-arrow</title>
<desc>Created using Figma</desc>
<g id="Canvas" transform="translate(-322 -27)">
<g id="down-arrow">
<g id="Vector">
<use xlink:href="#path0_fill" transform="matrix(-1 -1.22465e-16 1.22465e-16 -1 438.097 89.102)"/>
</g>
</g>
</g>
<defs>
<path id="path0_fill" d="M 114.901 1.20172C 114.52 0.820745 114.068 0.518523 113.571 0.312326C 113.073 0.10613 112.54 -1.88122e-06 112.001 -1.88122e-06C 111.463 -1.88122e-06 110.929 0.10613 110.432 0.312326C 109.934 0.518523 109.482 0.820745 109.101 1.20172L 58.1012 52.3017L 7.00122 1.20172C 6.23209 0.432595 5.18893 0.000505459 4.10122 0.000505474C 3.01351 0.000505488 1.97035 0.432595 1.20122 1.20172C 0.432091 1.97085 9.28248e-08 3.01401 7.87881e-08 4.10172C 6.47515e-08 5.18944 0.432091 6.2326 1.20122 7.00173L 55.1012 60.9017C 55.4787 61.2869 55.9302 61.5918 56.4286 61.798C 56.927 62.0043 57.4619 62.1076 58.0012 62.1017C 59.0871 62.0936 60.1271 61.6632 60.9012 60.9017L 114.801 7.00173C 115.201 6.63487 115.522 6.19049 115.745 5.69563C 115.967 5.20077 116.087 4.66577 116.096 4.12319C 116.106 3.58062 116.005 3.04182 115.799 2.53957C 115.594 2.03733 115.288 1.58214 114.901 1.20172L 114.901 1.20172Z"/>
</defs>
</svg>
